ffmpeg version git-2026-04-19-de18feb Copyright (c) 2000-2026 the FFmpeg developers
  built with gcc 9 (Ubuntu 9.4.0-1ubuntu1~20.04.2)
  configuration: --enable-shared --enable-gpl --enable-libx264
  libavutil      60. 30.100 / 60. 30.100
  libavcodec     62. 30.100 / 62. 30.100
  libavformat    62. 13.102 / 62. 13.102
  libavdevice    62.  4.100 / 62.  4.100
  libavfilter    11. 15.101 / 11. 15.101
  libswscale      9.  7.100 /  9.  7.100
  libswresample   6.  4.100 /  6.  4.100
[in#0/x11grab @ 0x564315fa3c40] Stream #0: not enough frames to estimate rate; consider increasing probesize
Input #0, x11grab, from ':0.0+0,0':
  Duration: N/A, start: 1777362753.797777, bitrate: 3678192 kb/s
  Stream #0:0: Video: rawvideo (BGR[0] / 0x524742), bgr0, 2870x1602, 3678192 kb/s, 25 fps, 1000k tbr, 1000k tbn, start 1777362753.797777
Stream mapping:
  Stream #0:0 -> #0:0 (rawvideo (native) -> h264 (libx264))
[libx264 @ 0x564315fb1f00] using cpu capabilities: MMX2 SSE2Fast SSSE3 SSE4.2 AVX FMA3 BMI2 AVX2
[libx264 @ 0x564315fb1f00] profile High, level 5.0
[libx264 @ 0x564315fb1f00] 264 - core 155 r2917 0a84d98 - H.264/MPEG-4 AVC codec - Copyleft 2003-2018 - http://www.videolan.org/x264.html - options: cabac=1 ref=1 deblock=1:0:0 analyse=0x3:0x113 me=hex subme=2 psy=1 psy_rd=1.00:0.00 mixed_ref=0 me_range=16 chroma_me=1 trellis=0 8x8dct=1 cqm=0 deadzone=21,11 fast_pskip=1 chroma_qp_offset=0 threads=6 lookahead_threads=2 sliced_threads=0 nr=0 decimate=1 interlaced=0 bluray_compat=0 constrained_intra=0 bframes=3 b_pyramid=2 b_adapt=1 b_bias=0 direct=1 weightb=1 open_gop=0 weightp=1 keyint=250 keyint_min=25 scenecut=40 intra_refresh=0 rc_lookahead=10 rc=crf mbtree=1 crf=23.0 qcomp=0.60 qpmin=0 qpmax=69 qpstep=4 ip_ratio=1.40 aq=1:1.00
Output #0, matroska, to '/home/lmy/catkin_ws/recordings_tmp/tennis_pickup_screen_20260428_005159/screen.mkv':
  Metadata:
    encoder         : Lavf62.13.102
  Stream #0:0: Video: h264 (H264 / 0x34363248), yuv420p(tv, progressive), 2870x1602, q=2-31, 25 fps, 1k tbn
    Metadata:
      encoder         : Lavc62.30.100 libx264
    Side data:
      CPB properties: bitrate max/min/avg: 0/0/0 buffer size: 0 vbv_delay: N/A
frame=    0 fps=0.0 q=0.0 size=       0KiB time=N/A bitrate=N/A speed=N/A elapsed=0:00:00.50    frame=    6 fps=6.0 q=28.0 size=       1KiB time=00:00:00.20 bitrate=  23.8kbits/s speed= 0.2x elapsed=0:00:01.00    frame=   18 fps= 12 q=28.0 size=       1KiB time=00:00:00.64 bitrate=   7.4kbits/s speed=0.426x elapsed=0:00:01.50    frame=   31 fps= 15 q=28.0 size=       1KiB time=00:00:01.16 bitrate=   4.1kbits/s speed=0.579x elapsed=0:00:02.00    frame=   44 fps= 18 q=28.0 size=       1KiB time=00:00:01.72 bitrate=   2.8kbits/s speed=0.687x elapsed=0:00:02.50    frame=   56 fps= 19 q=28.0 size=       1KiB time=00:00:02.20 bitrate=   2.2kbits/s speed=0.732x elapsed=0:00:03.00    frame=   69 fps= 20 q=28.0 size=       1KiB time=00:00:02.68 bitrate=   1.8kbits/s speed=0.765x elapsed=0:00:03.50    frame=   81 fps= 20 q=28.0 size=       1KiB time=00:00:03.20 bitrate=   1.5kbits/s speed=0.799x elapsed=0:00:04.00    frame=   94 fps= 21 q=28.0 size=       1KiB time=00:00:03.68 bitrate=   1.3kbits/s speed=0.817x elapsed=0:00:04.50    frame=  106 fps= 21 q=28.0 size=       1KiB time=00:00:04.20 bitrate=   1.1kbits/s speed=0.839x elapsed=0:00:05.00    frame=  119 fps= 22 q=28.0 size=       1KiB time=00:00:04.68 bitrate=   1.0kbits/s speed=0.85x elapsed=0:00:05.50    frame=  132 fps= 22 q=28.0 size=     216KiB time=00:00:05.24 bitrate= 337.7kbits/s speed=0.872x elapsed=0:00:06.00    frame=  144 fps= 22 q=28.0 size=     216KiB time=00:00:05.68 bitrate= 311.5kbits/s speed=0.873x elapsed=0:00:06.50    frame=  156 fps= 22 q=28.0 size=     216KiB time=00:00:06.20 bitrate= 285.4kbits/s speed=0.885x elapsed=0:00:07.00    frame=  169 fps= 23 q=28.0 size=     216KiB time=00:00:06.68 bitrate= 264.9kbits/s speed=0.89x elapsed=0:00:07.50    frame=  181 fps= 23 q=28.0 size=     216KiB time=00:00:07.16 bitrate= 247.1kbits/s speed=0.894x elapsed=0:00:08.00    frame=  194 fps= 23 q=28.0 size=     216KiB time=00:00:07.72 bitrate= 229.2kbits/s speed=0.907x elapsed=0:00:08.50    frame=  207 fps= 23 q=28.0 size=     216KiB time=00:00:08.20 bitrate= 215.8kbits/s speed=0.91x elapsed=0:00:09.01    frame=  219 fps= 23 q=28.0 size=     216KiB time=00:00:08.68 bitrate= 203.9kbits/s speed=0.913x elapsed=0:00:09.51    frame=  232 fps= 23 q=28.0 size=     216KiB time=00:00:09.20 bitrate= 192.3kbits/s speed=0.919x elapsed=0:00:10.01    frame=  244 fps= 23 q=28.0 size=     216KiB time=00:00:09.72 bitrate= 182.0kbits/s speed=0.925x elapsed=0:00:10.51    frame=  257 fps= 23 q=28.0 size=     256KiB time=00:00:10.20 bitrate= 205.6kbits/s speed=0.926x elapsed=0:00:11.01    frame=  269 fps= 23 q=28.0 size=     256KiB time=00:00:10.68 bitrate= 196.4kbits/s speed=0.928x elapsed=0:00:11.51    frame=  282 fps= 23 q=28.0 size=     256KiB time=00:00:11.20 bitrate= 187.2kbits/s speed=0.932x elapsed=0:00:12.01    frame=  294 fps= 23 q=28.0 size=     256KiB time=00:00:11.68 bitrate= 179.6kbits/s speed=0.933x elapsed=0:00:12.51    frame=  306 fps= 24 q=28.0 size=     256KiB time=00:00:12.16 bitrate= 172.5kbits/s speed=0.934x elapsed=0:00:13.01    frame=  319 fps= 24 q=28.0 size=     256KiB time=00:00:12.68 bitrate= 165.4kbits/s speed=0.938x elapsed=0:00:13.51    frame=  332 fps= 24 q=28.0 size=     256KiB time=00:00:13.20 bitrate= 158.9kbits/s speed=0.942x elapsed=0:00:14.01    frame=  344 fps= 24 q=28.0 size=     256KiB time=00:00:13.68 bitrate= 153.3kbits/s speed=0.942x elapsed=0:00:14.51    frame=  356 fps= 24 q=28.0 size=     256KiB time=00:00:14.16 bitrate= 148.1kbits/s speed=0.943x elapsed=0:00:15.01    frame=  369 fps= 24 q=28.0 size=     256KiB time=00:00:14.68 bitrate= 142.9kbits/s speed=0.946x elapsed=0:00:15.51    frame=  382 fps= 24 q=28.0 size=     512KiB time=00:00:15.24 bitrate= 275.2kbits/s speed=0.951x elapsed=0:00:16.01    frame=  394 fps= 24 q=28.0 size=     512KiB time=00:00:15.72 bitrate= 266.8kbits/s speed=0.952x elapsed=0:00:16.52    frame=  407 fps= 24 q=28.0 size=     512KiB time=00:00:16.20 bitrate= 258.9kbits/s speed=0.952x elapsed=0:00:17.02    frame=  419 fps= 24 q=28.0 size=     512KiB time=00:00:16.72 bitrate= 250.9kbits/s speed=0.954x elapsed=0:00:17.52    frame=  432 fps= 24 q=28.0 size=     512KiB time=00:00:17.20 bitrate= 243.9kbits/s speed=0.954x elapsed=0:00:18.02    frame=  444 fps= 24 q=28.0 size=     512KiB time=00:00:17.68 bitrate= 237.2kbits/s speed=0.955x elapsed=0:00:18.52    frame=  457 fps= 24 q=28.0 size=     512KiB time=00:00:18.20 bitrate= 230.5kbits/s speed=0.957x elapsed=0:00:19.02    frame=  469 fps= 24 q=28.0 size=     512KiB time=00:00:18.68 bitrate= 224.5kbits/s speed=0.957x elapsed=0:00:19.52    frame=  482 fps= 24 q=28.0 size=     512KiB time=00:00:19.20 bitrate= 218.5kbits/s speed=0.959x elapsed=0:00:20.02    frame=  494 fps= 24 q=28.0 size=     512KiB time=00:00:19.72 bitrate= 212.7kbits/s speed=0.961x elapsed=0:00:20.52    frame=  507 fps= 24 q=28.0 size=     512KiB time=00:00:20.20 bitrate= 207.6kbits/s speed=0.961x elapsed=0:00:21.02    frame=  519 fps= 24 q=28.0 size=     512KiB time=00:00:20.68 bitrate= 202.8kbits/s speed=0.961x elapsed=0:00:21.52    frame=  532 fps= 24 q=28.0 size=     512KiB time=00:00:21.20 bitrate= 197.8kbits/s speed=0.963x elapsed=0:00:22.02    frame=  544 fps= 24 q=28.0 size=     512KiB time=00:00:21.68 bitrate= 193.5kbits/s speed=0.963x elapsed=0:00:22.52    frame=  557 fps= 24 q=28.0 size=     512KiB time=00:00:22.20 bitrate= 188.9kbits/s speed=0.964x elapsed=0:00:23.02    frame=  569 fps= 24 q=28.0 size=     512KiB time=00:00:22.72 bitrate= 184.6kbits/s speed=0.966x elapsed=0:00:23.52    frame=  581 fps= 24 q=28.0 size=     512KiB time=00:00:23.16 bitrate= 181.1kbits/s speed=0.964x elapsed=0:00:24.02    frame=  594 fps= 24 q=28.0 size=     512KiB time=00:00:23.72 bitrate= 176.8kbits/s speed=0.967x elapsed=0:00:24.52    frame=  607 fps= 24 q=28.0 size=     512KiB time=00:00:24.20 bitrate= 173.3kbits/s speed=0.967x elapsed=0:00:25.02    frame=  619 fps= 24 q=28.0 size=     512KiB time=00:00:24.68 bitrate= 169.9kbits/s speed=0.967x elapsed=0:00:25.52    frame=  631 fps= 24 q=28.0 size=     768KiB time=00:00:25.16 bitrate= 250.1kbits/s speed=0.967x elapsed=0:00:26.02    frame=  644 fps= 24 q=28.0 size=     768KiB time=00:00:25.72 bitrate= 244.6kbits/s speed=0.97x elapsed=0:00:26.52    frame=  656 fps= 24 q=28.0 size=     768KiB time=00:00:26.20 bitrate= 240.1kbits/s speed=0.969x elapsed=0:00:27.02    frame=  669 fps= 24 q=28.0 size=     768KiB time=00:00:26.72 bitrate= 235.5kbits/s speed=0.971x elapsed=0:00:27.52    frame=  682 fps= 24 q=28.0 size=     768KiB time=00:00:27.20 bitrate= 231.3kbits/s speed=0.971x elapsed=0:00:28.02    frame=  694 fps= 24 q=28.0 size=     768KiB time=00:00:27.68 bitrate= 227.3kbits/s speed=0.97x elapsed=0:00:28.52    frame=  707 fps= 24 q=28.0 size=     768KiB time=00:00:28.24 bitrate= 222.8kbits/s speed=0.973x elapsed=0:00:29.02    frame=  720 fps= 24 q=28.0 size=     768KiB time=00:00:28.72 bitrate= 219.1kbits/s speed=0.973x elapsed=0:00:29.52    frame=  732 fps= 24 q=28.0 size=     768KiB time=00:00:29.20 bitrate= 215.5kbits/s speed=0.972x elapsed=0:00:30.02    frame=  745 fps= 24 q=28.0 size=     768KiB time=00:00:29.76 bitrate= 211.4kbits/s speed=0.975x elapsed=0:00:30.52    frame=  757 fps= 24 q=28.0 size=    1024KiB time=00:00:30.20 bitrate= 277.8kbits/s speed=0.973x elapsed=0:00:31.02    frame=  769 fps= 24 q=28.0 size=    1024KiB time=00:00:30.72 bitrate= 273.1kbits/s speed=0.974x elapsed=0:00:31.52    frame=  782 fps= 24 q=28.0 size=    1024KiB time=00:00:31.24 bitrate= 268.5kbits/s speed=0.975x elapsed=0:00:32.02    frame=  795 fps= 24 q=28.0 size=    1024KiB time=00:00:31.76 bitrate= 264.1kbits/s speed=0.976x elapsed=0:00:32.52    frame=  807 fps= 24 q=28.0 size=    1024KiB time=00:00:32.20 bitrate= 260.5kbits/s speed=0.975x elapsed=0:00:33.02    frame=  820 fps= 24 q=28.0 size=    1024KiB time=00:00:32.76 bitrate= 256.1kbits/s speed=0.977x elapsed=0:00:33.52    frame=  832 fps= 24 q=28.0 size=    1024KiB time=00:00:33.20 bitrate= 252.7kbits/s speed=0.976x elapsed=0:00:34.03    frame=  845 fps= 24 q=28.0 size=    1024KiB time=00:00:33.76 bitrate= 248.5kbits/s speed=0.978x elapsed=0:00:34.53    frame=  857 fps= 24 q=28.0 size=    1024KiB time=00:00:34.24 bitrate= 245.0kbits/s speed=0.977x elapsed=0:00:35.03    frame=  870 fps= 24 q=28.0 size=    1024KiB time=00:00:34.76 bitrate= 241.3kbits/s speed=0.978x elapsed=0:00:35.53    frame=  882 fps= 24 q=28.0 size=    1280KiB time=00:00:35.20 bitrate= 297.9kbits/s speed=0.977x elapsed=0:00:36.03    frame=  895 fps= 24 q=28.0 size=    1280KiB time=00:00:35.76 bitrate= 293.2kbits/s speed=0.979x elapsed=0:00:36.53    frame=  907 fps= 24 q=28.0 size=    1280KiB time=00:00:36.20 bitrate= 289.7kbits/s speed=0.978x elapsed=0:00:37.03    frame=  920 fps= 25 q=28.0 size=    1280KiB time=00:00:36.72 bitrate= 285.6kbits/s speed=0.978x elapsed=0:00:37.53    frame=  932 fps= 25 q=28.0 size=    1280KiB time=00:00:37.20 bitrate= 281.9kbits/s speed=0.978x elapsed=0:00:38.03    frame=  945 fps= 25 q=28.0 size=    1280KiB time=00:00:37.72 bitrate= 278.0kbits/s speed=0.979x elapsed=0:00:38.53    frame=  957 fps= 25 q=28.0 size=    1280KiB time=00:00:38.20 bitrate= 274.5kbits/s speed=0.979x elapsed=0:00:39.03    frame=  970 fps= 25 q=28.0 size=    1280KiB time=00:00:38.72 bitrate= 270.8kbits/s speed=0.979x elapsed=0:00:39.53    frame=  982 fps= 25 q=28.0 size=    1280KiB time=00:00:39.20 bitrate= 267.5kbits/s speed=0.979x elapsed=0:00:40.03    frame=  995 fps= 25 q=28.0 size=    1280KiB time=00:00:39.72 bitrate= 264.0kbits/s speed=0.98x elapsed=0:00:40.53    frame= 1007 fps= 25 q=28.0 size=    1280KiB time=00:00:40.24 bitrate= 260.6kbits/s speed=0.981x elapsed=0:00:41.03    frame= 1020 fps= 25 q=28.0 size=    1280KiB time=00:00:40.76 bitrate= 257.3kbits/s speed=0.981x elapsed=0:00:41.53    frame= 1032 fps= 25 q=28.0 size=    1280KiB time=00:00:41.20 bitrate= 254.5kbits/s speed=0.98x elapsed=0:00:42.03    frame= 1044 fps= 25 q=28.0 size=    1280KiB time=00:00:41.68 bitrate= 251.6kbits/s speed=0.98x elapsed=0:00:42.53    frame= 1057 fps= 25 q=28.0 size=    1280KiB time=00:00:42.24 bitrate= 248.2kbits/s speed=0.981x elapsed=0:00:43.03    frame= 1070 fps= 25 q=28.0 size=    1280KiB time=00:00:42.72 bitrate= 245.5kbits/s speed=0.981x elapsed=0:00:43.53    frame= 1082 fps= 25 q=28.0 size=    1280KiB time=00:00:43.20 bitrate= 242.7kbits/s speed=0.981x elapsed=0:00:44.03    frame= 1095 fps= 25 q=28.0 size=    1280KiB time=00:00:43.72 bitrate= 239.8kbits/s speed=0.982x elapsed=0:00:44.53    frame= 1107 fps= 25 q=28.0 size=    1280KiB time=00:00:44.20 bitrate= 237.2kbits/s speed=0.981x elapsed=0:00:45.03    frame= 1120 fps= 25 q=28.0 size=    1280KiB time=00:00:44.76 bitrate= 234.3kbits/s speed=0.983x elapsed=0:00:45.53    frame= 1132 fps= 25 q=28.0 size=    1536KiB time=00:00:45.20 bitrate= 278.4kbits/s speed=0.982x elapsed=0:00:46.04    frame= 1145 fps= 25 q=28.0 size=    1536KiB time=00:00:45.72 bitrate= 275.2kbits/s speed=0.982x elapsed=0:00:46.54    frame= 1157 fps= 25 q=28.0 size=    1536KiB time=00:00:46.20 bitrate= 272.4kbits/s speed=0.982x elapsed=0:00:47.04    frame= 1170 fps= 25 q=28.0 size=    1536KiB time=00:00:46.76 bitrate= 269.1kbits/s speed=0.984x elapsed=0:00:47.54    frame= 1182 fps= 25 q=28.0 size=    1536KiB time=00:00:47.24 bitrate= 266.4kbits/s speed=0.983x elapsed=0:00:48.04    frame= 1195 fps= 25 q=28.0 size=    1536KiB time=00:00:47.72 bitrate= 263.7kbits/s speed=0.983x elapsed=0:00:48.54    frame= 1207 fps= 25 q=28.0 size=    1536KiB time=00:00:48.24 bitrate= 260.8kbits/s speed=0.984x elapsed=0:00:49.04    frame= 1220 fps= 25 q=28.0 size=    1536KiB time=00:00:48.76 bitrate= 258.1kbits/s speed=0.984x elapsed=0:00:49.54    frame= 1232 fps= 25 q=28.0 size=    1536KiB time=00:00:49.24 bitrate= 255.5kbits/s speed=0.984x elapsed=0:00:50.04    frame= 1245 fps= 25 q=28.0 size=    1536KiB time=00:00:49.72 bitrate= 253.1kbits/s speed=0.984x elapsed=0:00:50.54    frame= 1258 fps= 25 q=28.0 size=    1792KiB time=00:00:50.24 bitrate= 292.2kbits/s speed=0.984x elapsed=0:00:51.04    frame= 1270 fps= 25 q=28.0 size=    1792KiB time=00:00:50.76 bitrate= 289.2kbits/s speed=0.985x elapsed=0:00:51.54    frame= 1282 fps= 25 q=28.0 size=    1792KiB time=00:00:51.24 bitrate= 286.5kbits/s speed=0.985x elapsed=0:00:52.04    frame= 1295 fps= 25 q=28.0 size=    1792KiB time=00:00:51.72 bitrate= 283.8kbits/s speed=0.984x elapsed=0:00:52.54    frame= 1307 fps= 25 q=28.0 size=    1792KiB time=00:00:52.20 bitrate= 281.2kbits/s speed=0.984x elapsed=0:00:53.04    frame= 1320 fps= 25 q=28.0 size=    1792KiB time=00:00:52.76 bitrate= 278.2kbits/s speed=0.985x elapsed=0:00:53.54    frame= 1333 fps= 25 q=28.0 size=    1792KiB time=00:00:53.24 bitrate= 275.7kbits/s speed=0.985x elapsed=0:00:54.04    frame= 1345 fps= 25 q=28.0 size=    1792KiB time=00:00:53.72 bitrate= 273.3kbits/s speed=0.985x elapsed=0:00:54.54    frame= 1358 fps= 25 q=28.0 size=    1792KiB time=00:00:54.24 bitrate= 270.7kbits/s speed=0.985x elapsed=0:00:55.04    frame= 1370 fps= 25 q=28.0 size=    1792KiB time=00:00:54.76 bitrate= 268.1kbits/s speed=0.986x elapsed=0:00:55.54    frame= 1383 fps= 25 q=28.0 size=    2048KiB time=00:00:55.24 bitrate= 303.7kbits/s speed=0.986x elapsed=0:00:56.04    frame= 1395 fps= 25 q=28.0 size=    2048KiB time=00:00:55.72 bitrate= 301.1kbits/s speed=0.985x elapsed=0:00:56.54    frame= 1408 fps= 25 q=28.0 size=    2048KiB time=00:00:56.24 bitrate= 298.3kbits/s speed=0.986x elapsed=0:00:57.05    frame= 1420 fps= 25 q=28.0 size=    2048KiB time=00:00:56.72 bitrate= 295.8kbits/s speed=0.986x elapsed=0:00:57.55    frame= 1432 fps= 25 q=28.0 size=    2048KiB time=00:00:57.24 bitrate= 293.1kbits/s speed=0.986x elapsed=0:00:58.05    frame= 1445 fps= 25 q=28.0 size=    2048KiB time=00:00:57.76 bitrate= 290.5kbits/s speed=0.986x elapsed=0:00:58.55    frame= 1458 fps= 25 q=28.0 size=    2048KiB time=00:00:58.28 bitrate= 287.9kbits/s speed=0.987x elapsed=0:00:59.05    frame= 1470 fps= 25 q=28.0 size=    2048KiB time=00:00:58.76 bitrate= 285.5kbits/s speed=0.987x elapsed=0:00:59.55    frame= 1482 fps= 25 q=28.0 size=    2048KiB time=00:00:59.24 bitrate= 283.2kbits/s speed=0.986x elapsed=0:01:00.05    [out#0/matroska @ 0x564315fb0500] Error writing trailer: Immediate exit requested
[out#0/matroska @ 0x564315fb0500] Error closing file: Immediate exit requested
[out#0/matroska @ 0x564315fb0500] video:2628KiB audio:0KiB subtitle:0KiB other streams:0KiB global headers:0KiB muxing overhead: unknown
frame= 1515 fps= 25 q=-1.0 Lsize=    2048KiB time=00:01:00.52 bitrate= 277.2kbits/s speed=0.997x elapsed=0:01:00.69    
[libx264 @ 0x564315fb1f00] frame I:7     Avg QP:11.38  size:165594
[libx264 @ 0x564315fb1f00] frame P:385   Avg QP:17.20  size:  2375
[libx264 @ 0x564315fb1f00] frame B:1123  Avg QP:23.70  size:   549
[libx264 @ 0x564315fb1f00] consecutive B-frames:  0.7%  1.1%  0.8% 97.4%
[libx264 @ 0x564315fb1f00] mb I  I16..4: 83.3%  1.5% 15.2%
[libx264 @ 0x564315fb1f00] mb P  I16..4:  0.5%  0.1%  0.0%  P16..4:  0.3%  0.2%  0.1%  0.0%  0.0%    skip:98.7%
[libx264 @ 0x564315fb1f00] mb B  I16..4:  0.3%  0.0%  0.0%  B16..8:  0.3%  0.1%  0.0%  direct: 0.1%  skip:99.3%  L0:46.2% L1:48.2% BI: 5.6%
[libx264 @ 0x564315fb1f00] 8x8 transform intra:2.9% inter:2.9%
[libx264 @ 0x564315fb1f00] coded y,uvDC,uvAC intra: 13.7% 22.6% 18.7% inter: 0.1% 0.1% 0.1%
[libx264 @ 0x564315fb1f00] i16 v,h,dc,p: 54% 44%  2%  0%
[libx264 @ 0x564315fb1f00] i8 v,h,dc,ddl,ddr,vr,hd,vl,hu: 10% 17% 68%  0%  1%  0%  3%  0%  2%
[libx264 @ 0x564315fb1f00] i4 v,h,dc,ddl,ddr,vr,hd,vl,hu: 27% 38% 19%  1%  2%  2%  5%  2%  5%
[libx264 @ 0x564315fb1f00] i8c dc,h,v,p: 49% 44%  6%  1%
[libx264 @ 0x564315fb1f00] Weighted P-Frames: Y:0.0% UV:0.0%
[libx264 @ 0x564315fb1f00] kb/s:354.88
Exiting normally, received signal 2.
